<svg width="323" height="316" viewBox="0 0 323 316" fill="none" xmlns="http://www.w3.org/2000/svg">
<path d="M55.5 143.051C55.5 163.698 70.5481 180.831 90.2753 184.08C83.4523 191.488 79.2854 201.379 79.2854 212.244C79.2854 235.211 97.9031 253.828 120.869 253.828C137.084 253.828 151.131 244.548 157.989 231.009C164.846 244.548 178.894 253.828 195.108 253.828C218.074 253.828 236.692 235.211 236.692 212.244C236.692 201.471 232.595 191.655 225.875 184.269C246.222 181.56 261.919 164.138 261.919 143.051C261.919 120.085 243.301 101.467 220.335 101.467C212.588 101.467 205.336 103.585 199.126 107.274C199.655 104.626 199.933 101.887 199.933 99.0838C199.933 76.1177 181.315 57.5 158.349 57.5C135.383 57.5 116.765 76.1177 116.765 99.0838C116.765 101.722 117.011 104.303 117.481 106.804C111.454 103.406 104.496 101.467 97.0838 101.467C74.1177 101.467 55.5 120.085 55.5 143.051Z" fill="#FF5F00" stroke="#DB5200"/>
<g filter="url(#filter0_i_67_17)">
<path d="M138.168 143.051C138.168 165.741 119.774 184.134 97.0838 184.134C74.3938 184.134 56 165.741 56 143.051C56 120.361 74.3938 101.967 97.0838 101.967C119.774 101.967 138.168 120.361 138.168 143.051Z" fill="#FF5F00"/>
<path d="M199.433 99.0838C199.433 121.774 181.039 140.168 158.349 140.168C135.659 140.168 117.265 121.774 117.265 99.0838C117.265 76.3938 135.659 58 158.349 58C181.039 58 199.433 76.3938 199.433 99.0838Z" fill="#FF5F00"/>
<path d="M261.419 143.051C261.419 165.741 243.025 184.134 220.335 184.134C197.645 184.134 179.251 165.741 179.251 143.051C179.251 120.361 197.645 101.967 220.335 101.967C243.025 101.967 261.419 120.361 261.419 143.051Z" fill="#FF5F00"/>
<path d="M161.953 212.244C161.953 234.934 143.559 253.328 120.869 253.328C98.1792 253.328 79.7854 234.934 79.7854 212.244C79.7854 189.554 98.1792 171.161 120.869 171.161C143.559 171.161 161.953 189.554 161.953 212.244Z" fill="#FF5F00"/>
<path d="M236.192 212.244C236.192 234.934 217.798 253.328 195.108 253.328C172.418 253.328 154.025 234.934 154.025 212.244C154.025 189.554 172.418 171.161 195.108 171.161C217.798 171.161 236.192 189.554 236.192 212.244Z" fill="#FF5F00"/>
<path d="M203.758 155.304C203.758 177.994 185.364 196.388 162.674 196.388C139.984 196.388 121.59 177.994 121.59 155.304C121.59 132.614 139.984 114.22 162.674 114.22C185.364 114.22 203.758 132.614 203.758 155.304Z" fill="#FF5F00"/>
</g>
<circle cx="135" cy="145" r="5" fill="#002379"/>
<circle cx="181" cy="145" r="5" fill="#002379"/>
<path d="M193 161C191.5 172 175.5 180 158 180C140 180 126 172 123 161" stroke="#002379" stroke-width="5" stroke-linecap="round"/>
<defs>
<filter id="filter0_i_67_17" x="56" y="58" width="205.419" height="195.328" filterUnits="userSpaceOnUse" color-interpolation-filters="sRGB">
<feFlood flood-opacity="0" result="BackgroundImageFix"/>
<feBlend mode="normal" in="SourceGraphic" in2="BackgroundImageFix" result="shape"/>
<feColorMatrix in="SourceAlpha" type="matrix" values="0 0 0 0 0 0 0 0 0 0 0 0 0 0 0 0 0 0 127 0" result="hardAlpha"/>
<feOffset/>
<feGaussianBlur stdDeviation="5"/>
<feComposite in2="hardAlpha" operator="arithmetic" k2="-1" k3="1"/>
<feColorMatrix type="matrix" values="0 0 0 0 1 0 0 0 0 0.980392 0 0 0 0 0.901961 0 0 0 0.6 0"/>
<feBlend mode="normal" in2="shape" result="effect1_innerShadow_67_17"/>
</filter>
</defs>
</svg>
